:SAMPLES-PER-SECOND 30
:FULLY-SPECIFIED
:DEGREES
445
root  67.9097 35.6413 3.22742 42.7635 -2.33948 1.52304
RightUpLeg  -94.9014 -33.317 39.4769
RightLeg  39.8799 9.9497 8.53302
RightFoot  2.3793 0.490711 -3.93607
RightToes  0.00048216 0.542163 -0.142577
Spine  70.079 -1.34932 2.84006
Spine1  8.0942 2.97167 -7.7159
HEad  -38.3424 -7.04947 0.902376
LeftShoulder1  5.08028 -27.4678 -8.83741
LeftArm  -83.7369 -55.4195 37.3551
LeftForeArm  -3.1804 -4.94801 4.17138
LeftHand  -0.25398 0.0180481 5.50724
RightShoulder  0.809305 14.2939 -4.40498
RightArm  -77.2879 55.9161 -17.4205
RightForeArm  -22.2153 8.17877 -0.384877
RightHand  -2.1795 13.3615 -13.9389
LeftUpLeg  -87.575 27.6798 -39.4392
LeftLeg  37.7926 -5.48496 -4.17355
LeftFoot  -1.75957 -0.441003 5.37211
LeftToes  1.06244e-005 4.65856e-005 -8.18505e-006
446
root  68.5991 35.4469 3.46439 43.6499 -3.03422 1.61994
RightUpLeg  -97.6548 -33.9089 41.4602
RightLeg  40.2516 10.7922 9.38094
RightFoot  2.83141 0.438484 -3.36764
RightToes  0.00048216 0.542163 -0.142577
Spine  70.5029 -1.19283 2.49294
Spine1  8.0905 2.70204 -6.81155
HEad  -38.3898 -7.02453 1.04646
LeftShoulder1  4.83851 -27.0945 -8.18623
LeftArm  -83.9688 -55.4292 37.4523
LeftForeArm  -7.73639 -4.99918 4.08958
LeftHand  -0.25398 0.0180481 5.50724
RightShoulder  0.797644 13.9886 -4.38681
RightArm  -82.0726 55.3465 -14.5748
RightForeArm  -22.6739 13.5505 0.400341
RightHand  -1.86614 13.2015 -12.1136
LeftUpLeg  -88.4048 26.4634 -40.2052
LeftLeg  39.6624 -4.37211 -3.49132
LeftFoot  -3.2677 -0.445558 6.58872
LeftToes  1.06244e-005 4.65856e-005 -8.18505e-006
447
root  69.2084 35.3081 3.66946 44.387 -3.53964 1.31547
RightUpLeg  -99.1709 -34.1298 42.7337
RightLeg  40.0763 11.6364 10.0528
RightFoot  3.352 0.366036 -2.66186
RightToes  0.00048216 0.542163 -0.142577
Spine  70.6845 -1.1911 2.38781
Spine1  8.35298 2.53834 -6.12292
HEad  -38.622 -6.64237 0.84312
LeftShoulder1  4.64325 -26.3709 -7.90014
LeftArm  -83.9486 -55.7384 36.4704
LeftForeArm  -12.9895 -6.12653 3.84714
LeftHand  -0.25398 0.0180481 5.50724
RightShoulder  0.956639 13.552 -3.18816
RightArm  -88.7652 54.8569 -13.9988
RightForeArm  -17.3092 18.7717 3.06986
RightHand  -1.34781 11.9503 -9.50447
LeftUpLeg  -89.2382 25.6104 -40.6653
LeftLeg  41.227 -3.43259 -2.82247
LeftFoot  -4.87875 -0.409924 7.76997
LeftToes  1.06244e-005 4.65856e-005 -8.18505e-006
448
root  69.7398 35.2301 3.83832 44.7559 -4.00116 0.890731
RightUpLeg  -99.6089 -34.2835 43.0081
RightLeg  39.6472 12.3828 10.5348
RightFoot  4.18484 0.27559 -1.81117
RightToes  0.00048216 0.542163 -0.142577
Spine  70.8899 -1.35383 2.27908
Spine1  8.68927 2.25927 -5.73733
HEad  -39.0738 -5.88987 0.462042
LeftShoulder1  4.78428 -25.5865 -8.91445
LeftArm  -85.5884 -56.0984 35.4092
LeftForeArm  -16.655 -8.81853 3.73492
LeftHand  -0.25398 0.0180481 5.50724
RightShoulder  1.10863 13.2229 -2.02866
RightArm  -90.3249 54.7295 -15.3656
RightForeArm  -14.2331 21.941 5.11399
RightHand  -0.877528 10.8287 -6.79971
LeftUpLeg  -89.7522 25.2454 -41.0791
LeftLeg  42.4095 -2.81431 -2.34769
LeftFoot  -6.32108 -0.341629 8.63338
LeftToes  1.06244e-005 4.65856e-005 -8.18505e-006
449
root  70.1713 35.2108 3.96472 44.792 -4.49804 0.413602
RightUpLeg  -99.1572 -34.3288 42.6175
RightLeg  38.8832 12.8178 10.6153
RightFoot  5.11993 0.223739 -1.30169
RightToes  0.00048216 0.542163 -0.142577
Spine  71.2319 -1.50655 2.0944
Spine1  8.7244 1.95983 -5.64289
HEad  -39.3585 -5.07844 0.521441
LeftShoulder1  5.24624 -24.7556 -11.2781
LeftArm  -89.8781 -56.5487 34.9539
LeftForeArm  -15.9474 -12.3967 3.29744
LeftHand  -0.25398 0.0180481 5.50724
RightShoulder  1.21238 13.373 -1.39845
RightArm  -87.953 54.5239 -16.7136
RightForeArm  -15.3074 23.7146 5.818
RightHand  -0.623843 10.5423 -5.06565
LeftUpLeg  -90.0418 25.3613 -41.5915
LeftLeg  43.1284 -2.52538 -2.12298
LeftFoot  -6.9138 -0.318842 9.29653
LeftToes  1.06244e-005 4.65856e-005 -8.18505e-006
450
root  70.4919 35.2463 4.04429 44.7357 -4.99819 -0.110383
RightUpLeg  -97.96 -34.0911 41.7853
RightLeg  37.6231 12.8537 10.186
RightFoot  5.9014 0.22341 -1.20554
RightToes  0.00048216 0.542163 -0.142577
Spine  71.442 -1.60957 2.15034
Spine1  8.64437 2.05314 -6.11515
HEad  -39.4169 -5.05584 1.56212
LeftShoulder1  5.11422 -23.6952 -11.5536
LeftArm  -95.7661 -57.2302 32.8317
LeftForeArm  -10.4849 -15.5804 1.97627
LeftHand  -0.25398 0.0180481 5.50724
RightShoulder  1.35006 13.237 -0.347614
RightArm  -86.0749 54.3295 -17.3828
RightForeArm  -17.2054 25.2777 6.25445
RightHand  -0.427538 10.3665 -3.66459
LeftUpLeg  -90.274 25.6942 -42.0586
LeftLeg  43.4162 -2.34945 -1.96833
LeftFoot  -7.01917 -0.33251 9.90864
LeftToes  1.06244e-005 4.65856e-005 -8.18505e-006
